Patient4_TMGait_0pt8_01_right_04_EMG.mot
version=1
nRows=30
nColumns=33
inDegrees=no
endheader
time	1LAddLong	2LGlutMax	3LGlutMed	4LIliopsoas	5LSemiMemb	6LBicFemLong	7LRecFem	8LVastMed	9LVastLat	10LGasMed	11LTibAnt	12lTibPost	13LPeroneusLong	14LSol	15LExtDigLong	16LFlexDigLong	17RAddLong	18RGlutMax	19RGlutMed	20RIliopsoas	21RSemiMemb	22RBicFemLong	23RRecFem	24RVastMed	25RVastLat	26RGasMed	27RTibAnt	28RTibPost	29RPeroneusLong	30RSol	31RExtDigLong	32RFlexDigLong
4.16	0.000916	-0.23178	-0.075378	-0.000153	0.009613	0.004578	0.20783	0.002136	0.076599	-0.000916	0.1178	0.002594	0.009155	-0.057068	0.18188	-0.00412	0.10742	1.1958	0.24841	-0.16647	0.031281	0.060272	0.48126	0.10117	0.003662	0.006409	0.03006	0.002289	0.10864	-0.034332	-0.003967	-0.000916
4.161	-0.005798	-0.20783	-0.087128	-0.011292	0.005646	-0.019226	0.20966	-0.004883	0.1059	0.032196	0.12253	0.002747	0.036774	0.026398	0.25299	0.16113	0.11505	1.1969	0.24445	-0.16464	0.025177	0.054169	0.28717	0.029449	0.017548	0.005646	-0.011597	-0.001373	0.061188	-0.027771	-0.001831	0.005646
4.162	-0.001678	-0.15991	-0.090179	0.005188	0	-0.009308	0.1683	0.018311	0.039978	0.039978	0.10254	0.007019	-0.02182	0.024872	0.21805	0.097046	0.075531	1.1017	0.40802	-0.10834	0.007935	0.042114	0.21088	-0.053101	0.00061	0.004425	-0.039825	-0.006256	0.033417	-0.002747	-0.00412	0.005035
4.163	-0.002136	-0.19119	-0.092163	-0.015106	0.009308	-0.0354	0.1683	0.018005	0.015869	0.011139	-0.000458	0.015869	0.000153	0.09079	0.11032	0.01709	0.020294	0.88425	0.49591	-0.097504	0.008392	0.056458	0.050354	-0.021057	-0.002594	0.003662	-0.070496	-0.002747	0.013275	-0.015106	-0.00473	0.007477
4.164	-0.002594	-0.23407	-0.068817	0.001068	0.00473	-0.00824	0.18265	0.014191	0.036316	-0.021362	-0.007782	0.006714	0.086975	0.073547	0.069427	-0.010223	-0.046234	0.59021	0.41473	0.003967	0.007782	0.072937	-0.057678	-0.009308	0.010223	0.002136	-0.066986	0.002899	0.016937	-0.054169	-0.00351	0.00351
4.165	-0.007019	-0.24735	-0.063934	0.004272	0.008698	-0.011749	0.14496	0.00824	0.020752	-0.024567	0.10498	0.005188	0.010223	-0.04364	0.10101	-0.004578	-0.081482	0.4216	0.52414	0.11292	0.001068	0.068207	-0.20798	0.030823	-0.000153	0.002747	0.18677	0.003204	0.015564	-0.047302	-0.004578	-0.00061
4.166	0.000153	-0.27039	-0.030212	0.007324	0.009155	-0.004272	0.09964	-0.004272	0.046387	-0.010376	-0.11047	0.00351	-0.080414	-0.15747	-0.08728	-0.003815	-0.10361	0.24078	0.60257	0.082397	0.010834	0.060425	-0.20508	0.017853	-0.027771	0.010986	0.29175	0.010376	0.031281	-0.048828	-0.002289	-0.00061
4.167	-0.005493	-0.25559	-0.031281	0.00351	0.007935	-0.014191	0.18173	-0.023193	0.12161	0	-0.13779	-0.010986	-0.070038	-0.12985	-0.22705	-0.05249	-0.085297	0.041351	0.64972	-0.085907	0.009918	0.052948	-0.15091	-0.04776	0.001373	0.010071	0.14526	0.001373	-0.061951	0.002289	-0.002594	0.001984
4.168	-0.002136	-0.24002	-0.001984	0.018616	-0.001678	-0.009308	0.25162	-0.02243	0.090485	-0.00885	0.029144	-0.006714	-0.099335	-0.095062	0.05127	-0.2739	-0.075836	-0.10117	0.55618	-0.18265	0.017853	0.058594	-0.069885	-0.075073	-0.010681	0.006104	-0.025177	0.003357	-0.097961	0.005646	-0.00061	-0.007782
4.169	-0.004425	-0.25574	0.025177	0.018005	0.002441	-0.003357	0.25299	-0.016022	0.084534	0.003967	0.058746	-0.003204	-0.079498	0.002899	-0.10407	-0.53757	-0.086365	-0.27771	0.25787	-0.1593	0.029907	0.067444	-0.052032	-0.069275	-0.011444	0.007172	-0.032196	0.00351	-0.17807	-0.059814	0.002136	0
4.17	-0.007629	-0.27557	0.055542	-0.010986	-0.006104	0.010529	0.2356	-0.005798	0.071869	-0.055237	0.038452	-0.004578	0.001373	0.073395	-0.11673	0.61386	-0.066528	-0.40176	0.26138	-0.18967	0.054932	0.075378	0.078735	-0.11475	-0.010071	0.023804	0.072784	0.001526	-0.2092	-0.13092	-0.005341	-0.007935
4.171	-0.006866	-0.30151	0.11963	-0.004272	-0.012817	0.009766	0.25192	-0.006866	0.053406	-0.053864	0.024872	-0.13596	0.029907	0.13794	-0.12177	0.68939	-0.0383	-0.48477	0.49347	-0.23621	0.044708	0.076447	0.066528	-0.11292	-0.009003	0.006104	0.1535	0.001984	-0.2739	-0.11551	0.000153	-0.017395
4.172	-0.003204	-0.26199	0.025177	-0.011139	0.005188	0.014648	0.25299	-0.002289	0.046387	-0.041656	0.022736	0.16464	0.052643	0.20523	0.15884	-0.3508	-0.040588	-0.54245	0.77026	-0.32318	0.04715	0.058136	0.075531	-0.11261	0.009766	0.010986	0.16876	0.007019	-0.21683	-0.053406	-0.001984	-0.009003
4.173	-0.003357	-0.27039	-0.084686	-0.000153	0.010071	0.015717	0.242	0.007172	0.028229	-0.035095	0.000305	-0.069122	0.023193	0.24902	-0.099335	0.80536	-0.046997	-0.62637	0.54733	-0.30395	0.046082	0.040436	0.11673	-0.16876	0.002594	0.008545	-0.06958	0.006256	0.56015	0.026398	-0.005188	-0.012054
4.174	-0.003662	-0.29633	-0.12116	0.002594	-0.020294	0.023041	0.25375	0.005188	0.021057	0.018158	-0.012207	0.014343	-0.013428	0.31326	-0.036926	0.18356	-0.028381	-0.699	0.4602	-0.17227	0.038452	0.03891	0.092316	-0.1915	-0.020294	0.009003	-0.12222	0.007935	0.74524	-0.06897	-0.001831	-0.020142
4.175	-0.006409	-0.24185	-0.16586	0.011597	-0.053101	-0.018616	0.27695	0.008087	0.001526	0.083618	0.012054	0.043488	0.041504	0.040283	-0.12024	-0.15762	0.020447	-0.70313	0.91904	-0.1326	0.024872	0.042114	0.10498	-0.1181	0.004272	0.006104	0.041351	0.004578	0.48218	-0.066833	-0.003662	-0.011292
4.176	0.003815	-0.27252	-0.12512	-0.004425	-0.080414	-0.094299	0.2829	-0.001678	-0.000763	0.11261	-0.003815	0.020142	-0.007324	-0.21286	0.0177	-0.6189	0.011292	-0.70435	0.78888	-0.26581	0.006866	0.01358	0.10361	-0.076599	-0.006866	0.021667	0.022583	0.003815	0.51697	-0.12207	-0.002136	-0.022583
4.177	0.008392	-0.25909	-0.13306	0.014954	-0.037842	-0.098419	0.26459	-0.001373	-0.000153	0.095673	0.00473	-0.16342	-0.028534	-0.018311	0.061646	-0.089417	0.00885	-0.72769	0.90332	-0.3688	-0.019531	0.011902	0.080414	-0.092316	-0.014801	0.019531	-0.072174	0.00473	0.55313	-0.16373	-0.00412	-0.018616
4.178	0.012207	-0.23422	-0.11185	-0.001831	0.072937	-0.03479	0.28625	-0.010071	0.016022	0.20813	0.01236	0.043488	-0.16007	-0.12497	0.045471	0.41626	-0.012817	-0.80032	0.84946	-0.19104	-0.009766	0.014191	-0.014648	-0.046082	-0.016174	0.016327	-0.11093	0.00351	0.088501	-0.12405	-0.004272	-0.011902
4.179	0.013428	-0.19333	-0.12207	0.002289	0.082397	0.014343	0.30838	-0.00412	0.022125	0.049896	-0.00412	-0.011139	-0.18692	-0.33005	0.015106	0.1648	-0.027161	-0.74692	0.87051	0.20737	0.00061	0.014191	-0.12039	-0.005341	-0.018005	0.009766	0.084076	0.000153	-0.59982	-0.074768	-0.002899	-0.016174
4.18	0.015564	-0.14008	-0.096283	0.009613	0.058136	0.006409	0.3122	0.001373	0.014038	-0.33798	0.009308	-0.014648	-0.18326	-0.16357	0.008087	-0.27741	-0.030975	-0.79865	0.70389	0.5513	-0.003204	0.027466	-0.21576	0.021515	-0.009308	-0.001221	0.10147	0.002289	-0.34775	0.06012	-0.002441	-0.009155
4.181	0.007935	-0.098572	-0.072937	0.006561	0.014496	0.006104	0.34134	0.00061	0.001678	-0.14084	0.005188	0.088959	-0.046692	0.28976	0.033722	-0.25345	-0.0177	-0.76874	0.45136	0.75485	0.000305	0.031281	-0.14404	0.003967	-0.004578	0.000153	0.025635	0.004883	-0.15564	0.14969	-0.001831	-0.009766
4.182	0.011749	-0.04776	-0.06134	0.001068	-0.063019	-0.020142	0.32044	0.001526	-0.009613	0.11948	0.00412	0.014801	0.16327	0.42984	-0.000916	-0.42526	-0.007782	-0.74448	0.5365	0.59311	-0.011139	0.046539	0.004425	0.016785	-0.008392	0.003967	-0.29846	0.002747	-0.038452	0.10223	-0.004425	-0.010071
4.183	0.000763	-0.029449	-0.076141	0.003052	-0.090485	-0.038757	0.34988	0.002747	-0.016937	0.13016	0.033875	-0.063171	0.18555	0.47943	0.032806	-0.10361	-0.011292	-0.73669	0.82581	0.27649	-0.015259	0.041962	0.024414	0.014954	0.022736	-0.001526	-0.23102	0.002289	-0.16953	0.055237	-0.002289	-0.000916
4.184	-0.005341	0.034943	-0.054016	0.010071	-0.079651	-0.034485	0.35904	-0.001373	-0.032043	0.090637	0.058441	0.0177	0.16602	-0.098267	0.059509	-0.11795	0.022583	-0.6868	0.70023	0.12375	-0.00412	0.024261	-0.000153	0.030212	0.028381	-0.002289	-0.044403	0.003357	0.054169	-0.012817	-0.001831	-0.006256
4.185	0.05127	0.099487	0.00351	0.01709	-0.013275	-0.067444	0.35263	0.003815	-0.032043	0.12589	-0.014191	-0.016632	0.13428	-0.34409	0.016022	0.10727	0.03479	-0.66086	0.74127	0.070038	0.000153	0.027771	0.10757	-0.025482	0.004883	0.003052	0.24658	0.005646	-0.043793	-0.066528	-0.001678	-0.002747
4.186	0.032806	0.10696	0.071716	-0.014648	0.11353	-0.056915	0.32135	0.000916	-0.025024	-0.3067	-0.016327	-0.030975	0.10269	-0.4747	-0.002747	0.46005	0.027924	-0.66574	0.71259	0.072479	-0.007172	0.04364	0.22568	-0.089874	-0.000153	0.010376	0.52246	0.006409	-0.03006	-0.023346	-0.001984	0.00061
4.187	-0.0177	0.11414	0.024109	-0.000916	0.061951	-0.010529	0.36804	0.000763	-0.000458	-0.15717	-0.027161	-0.010681	0.1004	-0.36667	-0.051727	0.11887	0.028839	-0.56137	0.81802	0.071869	-0.006256	0.047913	0.23056	-0.15427	-0.012665	-0.002136	0.54627	0.003357	-0.09079	0.060577	0.002441	0.000153
4.188	-0.002899	0.10483	0.018768	0.00351	0.054932	0.001526	0.3537	0.006714	-0.001526	0.039368	-0.02655	0.006561	0.10773	-0.17242	0.063171	-0.02533	0.002136	-0.634	0.59906	0.084229	0.004883	0.042267	0.26901	-0.17654	-0.015411	-0.011292	0.51621	0.004578	-0.12878	0.16892	-0.001831	0.002594
4.189	0.005951	0.1329	-0.003662	-0.008392	0.022736	-0.021515	0.32074	0.011902	-0.010071	0.10513	-0.027008	0.008545	0.027313	-0.1181	0.021362	0.1767	0.007782	-0.57724	0.52353	0.13809	0.001984	0.043945	0.26581	-0.25055	-0.004425	-0.008545	0.30548	0.005798	-0.076447	0.17609	-0.00351	-0.005341
